<svg xmlns="http://www.w3.org/2000/svg" width="58.722" height="53.528" viewBox="0 0 58.722 53.528"><defs><style>.a{fill:#fff;}</style></defs><g transform="translate(0 -0.23)"><path class="a" d="M232.493,105.59a.868.868,0,0,0,1.227.025L240.2,99.4l6.716,5.29a.867.867,0,0,0,1.069,0l9.475-7.363-.339,4.408a.868.868,0,0,0,.8.932l.067,0a.867.867,0,0,0,.864-.8l.49-6.369a.868.868,0,0,0-.8-.932l-6.86-.49a.868.868,0,0,0-.124,1.731l4.61.329-8.708,6.767-6.776-5.337a.867.867,0,0,0-1.137.056l-7.023,6.737a.868.868,0,0,0-.026,1.227Zm0,0" transform="translate(-203.546 -82.237)"/><path class="a" d="M67.845,206.719H60.02a.81.81,0,0,0-.835.831v25.442h-4.7V212.355a.915.915,0,0,0-.862-.926H45.8a.9.9,0,0,0-.844.926v20.638h-4.7V221.3a.82.82,0,0,0-.852-.826H31.574a.822.822,0,0,0-.853.826v11.691h-15.3a.868.868,0,0,0,0,1.735H70.6a.868.868,0,0,0,0-1.735H68.715V207.55a.84.84,0,0,0-.87-.831Zm-21.159,6.444H52.75v19.829H46.686ZM32.453,232.992V222.21h6.064v10.782Zm28.465,0V208.454h6.064v24.538Zm0,0" transform="translate(-12.748 -180.969)"/><path class="a" d="M44.411,48.53a4.227,4.227,0,0,0,4.214-4.271V42.9a4.214,4.214,0,0,0-8.427,0v1.362a4.227,4.227,0,0,0,4.214,4.271ZM41.933,42.9a2.516,2.516,0,0,1,2.508-2.537H44.4A2.5,2.5,0,0,1,46.89,42.9v1.362a2.479,2.479,0,1,1-4.957,0Zm0,0" transform="translate(-35.216 -33.688)"/><path class="a" d="M.025,131a2.659,2.659,0,0,0,.8,1.914,2.689,2.689,0,0,0,1.934.776h0l.03.027a2.663,2.663,0,0,0,1.142-.258l.458,15.425a2.9,2.9,0,0,0,4.936,1.967,2.9,2.9,0,0,0,4.937-1.966l.457-15.4a2.709,2.709,0,0,0,1.151.255A2.748,2.748,0,0,0,18.614,131V120.58a4.412,4.412,0,0,0-3.94-4.807,4.395,4.395,0,0,0-.441-.049H12.441a.9.9,0,0,0-.594.262l-2.522,2.38L6.9,115.989a.89.89,0,0,0-.605-.266H4.4A4.439,4.439,0,0,0,0,120.168c0,.132.025.28.025.412Zm11.333,18.955a1.172,1.172,0,0,1-1.171-1.168V133.411a.868.868,0,0,0-1.735,0v15.378a1.166,1.166,0,0,1-2.331.031l-.529-17.854h7.465l-.531,17.849a1.18,1.18,0,0,1-1.169,1.142ZM2.51,118.267a2.677,2.677,0,0,1,1.887-.809h1.55l2.764,2.715c.006.005.012.024.017.029s.024.029.036.039l.031.028c.013.009.026.02.039.029l.033.022.04.023.036.018.04.018.039.015.04.014.041.012.04.009.042.007.041.005.041,0h.083l.043,0,.039,0,.044-.007.039-.008.043-.011.037-.013.042-.015.037-.016.039-.019.037-.02.037-.022.036-.025.034-.026.034-.029c.006-.005.013-.038.019-.044l2.876-2.726h1.449a2.714,2.714,0,0,1,.269.041,2.684,2.684,0,0,1,2.384,2.939c0,.029-.007.072-.007.1V131a.991.991,0,0,1-1.983,0v-2.277l.011-.358c0-.055-.011-.108-.011-.161V124a.868.868,0,1,0-1.735,0v4.7l-.052.536H5.54L5.5,128.3c0-.037-.023-.057-.023-.092V124a.868.868,0,0,0-1.735,0v6.951a.97.97,0,0,1-.973,1.008H2.756a.963.963,0,0,1-.707-.269A.934.934,0,0,1,1.76,131V120.539a.848.848,0,0,0-.011-.087c-.009-.09-.017-.194-.017-.283a2.68,2.68,0,0,1,.779-1.9Zm0,0" transform="translate(0 -101.25)"/><path class="a" d="M185.22,31.775a1.338,1.338,0,0,1-1.336-1.336.868.868,0,0,0-1.735,0,3.076,3.076,0,0,0,2.237,2.954v.6a.868.868,0,1,0,1.735,0v-.617a3.071,3.071,0,0,0-.9-6.006,1.336,1.336,0,1,1,1.335-1.336.868.868,0,1,0,1.735,0A3.075,3.075,0,0,0,186,23.062V22.59a.868.868,0,1,0-1.735,0v.526a3.07,3.07,0,0,0,.958,5.987,1.336,1.336,0,0,1,0,2.671Zm0,0" transform="translate(-159.608 -18.829)"/><path class="a" d="M141.694,18.687a9.228,9.228,0,1,0-9.228-9.228A9.229,9.229,0,0,0,141.694,18.687Zm0-16.722A7.493,7.493,0,1,1,134.2,9.459a7.493,7.493,0,0,1,7.493-7.493Zm0,0" transform="translate(-116.08 0)"/></g></svg>