<svg xmlns="http://www.w3.org/2000/svg" width="60.435" height="53.055" viewBox="0 0 60.435 53.055"><defs><style>.a{fill:#fff;}</style></defs><g transform="translate(0 -31.261)"><path class="a" d="M228.232,346.53h3.5a.885.885,0,1,0,0-1.771h-1.7v-1.106a.885.885,0,0,0-1.771,0v1.106h-.025a2.562,2.562,0,1,0,0,5.123h1.83a.793.793,0,0,1-.01,1.585h-3.5a.885.885,0,1,0,0,1.771h1.7v1.106a.885.885,0,1,0,1.771,0v-1.106h.028a2.563,2.563,0,0,0,.01-5.126h-1.83a.794.794,0,0,1-.794-.791A.8.8,0,0,1,228.232,346.53Z" transform="translate(-199.03 -274.739)"/><path class="a" d="M58.177,53.606a12.879,12.879,0,0,0-4.3-1.716l-.51-.137c-.3-.083-.512-.469-.664-.836,2.63-1.749,4.6-4.8,4.6-7.449V41.053A9.993,9.993,0,0,0,54.575,33.8a8.68,8.68,0,0,0-6.046-2.536H48.5a8.639,8.639,0,0,0-7.618,4.7,21.094,21.094,0,0,0-21.384-.1,8.631,8.631,0,0,0-7.568-4.606H11.9A8.674,8.674,0,0,0,5.858,33.8a9.995,9.995,0,0,0-2.727,7.256v2.416c0,2.652,1.967,5.7,4.595,7.448-.152.367-.362.754-.663.836l-.513.138a12.862,12.862,0,0,0-4.293,1.716A5.484,5.484,0,0,0,0,58.4V60.48A1.524,1.524,0,0,0,1.521,62H3.7a.885.885,0,0,0,0-1.771H1.771V58.4c0-2.763,1.506-3.691,4.053-4.461l4.559,2.672a2.838,2.838,0,0,0,1.534.538,2.838,2.838,0,0,0,1.534-.538l4.559-2.672c2.547.77,4.053,1.7,4.053,4.461v1.838H7.781a.885.885,0,0,0,0,1.771h2.8a21.028,21.028,0,0,0,9.6,10.659,10.055,10.055,0,1,0,19.854,0A21.028,21.028,0,0,0,49.637,62h2.324a.885.885,0,0,0,0-1.771H38.369V58.4c0-2.763,1.506-3.691,4.053-4.461l4.559,2.672a2.462,2.462,0,0,0,3.072,0l4.556-2.673c2.549.77,4.056,1.7,4.056,4.461v1.838H56.047a.885.885,0,0,0,0,1.771h2.864a1.526,1.526,0,0,0,1.524-1.524V58.4a5.484,5.484,0,0,0-2.259-4.789ZM48.515,33.031c3.151.057,6.521,2.26,6.968,6.948a3.226,3.226,0,0,1-1.3-.924,2.8,2.8,0,0,0-2.09-1.069,3.288,3.288,0,0,0-.822.112c-.406.1-.751.2-1.05.276a7.591,7.591,0,0,1-1.7.355,7.588,7.588,0,0,1-1.7-.355c-.3-.08-.646-.172-1.053-.277a2.691,2.691,0,0,0-2.915.958,3.222,3.222,0,0,1-1.3.923c.446-4.688,3.815-6.89,6.965-6.948ZM41.5,41.822a4.761,4.761,0,0,0,2.614-1.527c.5-.512.62-.633,1.209-.482.4.1.742.194,1.038.273a8.453,8.453,0,0,0,2.153.414,8.468,8.468,0,0,0,2.16-.415c.3-.079.636-.169,1.036-.272.586-.152.705-.03,1.207.482a4.765,4.765,0,0,0,2.615,1.528v1.647c0,2.549-2.5,5.713-5.345,6.769a4.235,4.235,0,0,1-3.342,0C44,49.182,41.5,46.019,41.5,43.469Zm-29.584-8.79c3.15.057,6.518,2.26,6.965,6.947a3.228,3.228,0,0,1-1.3-.923,2.693,2.693,0,0,0-2.916-.958c-.41.105-.758.2-1.059.278a7.522,7.522,0,0,1-1.692.353,7.59,7.59,0,0,1-1.7-.354c-.3-.08-.646-.172-1.053-.277a2.691,2.691,0,0,0-2.915.958,3.222,3.222,0,0,1-1.3.923C5.4,35.291,8.767,33.088,11.917,33.031ZM4.9,43.469V41.822a4.76,4.76,0,0,0,2.614-1.527c.5-.512.621-.633,1.209-.482.4.1.743.194,1.038.273a8.451,8.451,0,0,0,2.153.414,8.406,8.406,0,0,0,2.148-.413c.3-.079.64-.171,1.044-.274.589-.151.708-.03,1.211.483a4.764,4.764,0,0,0,2.612,1.526v1.647c0,2.55-2.5,5.714-5.346,6.769a4.219,4.219,0,0,1-3.338,0C7.4,49.182,4.9,46.019,4.9,43.469Zm7.638,11.62-.033.02c-.54.349-.64.349-1.18,0l-.033-.02L8.1,53.217A3.115,3.115,0,0,0,9.29,51.762c.113.048.227.093.341.135a6.462,6.462,0,0,0,2.287.454A6.459,6.459,0,0,0,14.2,51.9q.172-.064.342-.136a3.116,3.116,0,0,0,1.19,1.455ZM30.112,82.546a8.285,8.285,0,1,1,8.283-8.286,8.3,8.3,0,0,1-8.283,8.286ZM43.661,51.753l-.513.138a12.866,12.866,0,0,0-4.293,1.716A5.485,5.485,0,0,0,36.6,58.4V60.48A1.524,1.524,0,0,0,38.119,62h9.594a19.258,19.258,0,0,1-8.129,8.888,10.054,10.054,0,0,0-18.947,0A19.258,19.258,0,0,1,12.508,62h9.8a1.524,1.524,0,0,0,1.521-1.524V58.4a5.484,5.484,0,0,0-2.257-4.789,12.866,12.866,0,0,0-4.293-1.716l-.512-.138c-.3-.083-.512-.47-.664-.837,2.628-1.749,4.595-4.8,4.595-7.448V41.053a11.812,11.812,0,0,0-.514-3.537,19.323,19.323,0,0,1,20.024.11,11.859,11.859,0,0,0-.482,3.427v2.416c0,2.653,1.968,5.7,4.6,7.449-.152.367-.361.752-.665.835Zm5.48,3.336-.033.02c-.542.35-.642.35-1.183,0l-.033-.02L44.7,53.217a3.109,3.109,0,0,0,1.19-1.454q.169.071.34.135a6.005,6.005,0,0,0,4.574,0q.171-.063.339-.135a3.12,3.12,0,0,0,1.189,1.454Z" transform="translate(0 0)"/></g></svg>