<svg xmlns="http://www.w3.org/2000/svg" width="52.865" height="60.004" viewBox="0 0 52.865 60.004"><defs><style>.a{fill:#fff;}</style></defs><g transform="translate(-0.36)"><path class="a" d="M190.323,161.662a.937.937,0,0,0-.337-.012,2.238,2.238,0,0,1-1.979-2.219.984.984,0,1,0-1.968,0,4.211,4.211,0,0,0,3.1,4.054v.984a.984.984,0,0,0,1.968,0v-.925a4.2,4.2,0,0,0-.861-8.316,2.235,2.235,0,1,1,2.235-2.235.984.984,0,0,0,1.968,0,4.211,4.211,0,0,0-3.342-4.114v-.9a.984.984,0,1,0-1.968,0v.956a4.2,4.2,0,0,0,1.107,8.257,2.233,2.233,0,0,1,.082,4.465Zm0,0" transform="translate(-162.834 -128.915)"/><path class="a" d="M104.195,120.764a14.272,14.272,0,1,0,14.272-14.272A14.272,14.272,0,0,0,104.195,120.764Zm14.272-12.3a12.3,12.3,0,1,1-12.3,12.3A12.3,12.3,0,0,1,118.467,108.46Zm0,0" transform="translate(-91.06 -93.39)"/><path class="a" d="M46.531,330.277l-7.71,3.643a6.28,6.28,0,0,0-5.354-3.3l-7.117-.2a7.516,7.516,0,0,1-3.235-.835l-.724-.375a12.775,12.775,0,0,0-11.832.013l.045-1.641a.984.984,0,0,0-.957-1.011l-7.8-.215a.984.984,0,0,0-1.011.957L.36,344.44a.984.984,0,0,0,.957,1.011l7.8.215h.027a.984.984,0,0,0,.984-.957l.023-.819,2.028-1.086a3.478,3.478,0,0,1,2.6-.284l12.108,3.4c.021.006.042.011.064.016a12.96,12.96,0,0,0,2.661.274,13.132,13.132,0,0,0,5.486-1.2.916.916,0,0,0,.122-.067l17.555-11.355a.985.985,0,0,0,.322-1.311,4.972,4.972,0,0,0-6.566-2ZM2.355,343.511l.417-15.16,5.837.161-.417,15.16Zm31.856-.258a11.159,11.159,0,0,1-6.824.762l-12.075-3.39a5.442,5.442,0,0,0-4.057.444l-1.036.555.277-10.079a10.819,10.819,0,0,1,10.991-.586l.724.375a9.506,9.506,0,0,0,4.086,1.055l7.118.2a4.317,4.317,0,0,1,4.1,3.44l-10.6-.293a.984.984,0,0,0-.054,1.968l11.7.322h.027a.984.984,0,0,0,.983-.957,6.247,6.247,0,0,0-.1-1.277l7.908-3.737.023-.011a3.007,3.007,0,0,1,3.4.476Zm0,0" transform="translate(0 -286.205)"/><path class="a" d="M214.171,10.334V.984a.984.984,0,0,0-1.968,0v9.35a.984.984,0,0,0,1.968,0Zm0,0" transform="translate(-185.78)"/><path class="a" d="M274.171,45.413V40.984a.984.984,0,1,0-1.968,0v4.429a.984.984,0,1,0,1.968,0Zm0,0" transform="translate(-238.399 -35.079)"/><path class="a" d="M154.171,45.413V40.984a.984.984,0,1,0-1.968,0v4.429a.984.984,0,1,0,1.968,0Zm0,0" transform="translate(-133.162 -35.079)"/></g></svg>